RobotoSerifMicroCond-Super Italic 08fz.ufo
<glyph name="acute" format="2">
  <advance width="418"/>
  <anchor x="162" y="527" name="_top"/>
  <outline>
    <contour>
      <point x="224" y="811" type="curve" smooth="yes"/>
      <point x="155" y="680" type="line"/>
      <point x="146" y="643" type="line"/>
      <point x="196" y="643" type="line"/>
      <point x="302" y="709" type="line" smooth="yes"/>
      <point x="361" y="735"/>
      <point x="412" y="757"/>
      <point x="412" y="812" type="curve" smooth="yes"/>
      <point x="412" y="850"/>
      <point x="384" y="883"/>
      <point x="327" y="883" type="curve" smooth="yes"/>
      <point x="277" y="883"/>
      <point x="249" y="852"/>
    </contour>
  </outline>
</glyph>
<glyph name="acute.pl" format="2">
  <advance width="418"/>
  <anchor x="172" y="489" name="_top"/>
  <outline>
    <contour>
      <point x="136" y="802" type="curve" smooth="yes"/>
      <point x="127" y="680" type="line"/>
      <point x="128" y="643" type="line"/>
      <point x="178" y="643" type="line"/>
      <point x="246" y="711" type="line" smooth="yes"/>
      <point x="292" y="742"/>
      <point x="320" y="768"/>
      <point x="320" y="812" type="curve" smooth="yes"/>
      <point x="320" y="854"/>
      <point x="285" y="884"/>
      <point x="229" y="884" type="curve" smooth="yes"/>
      <point x="172" y="884"/>
      <point x="144" y="850"/>
    </contour>
  </outline>
</glyph>
<glyph name="acute.ucpl" format="2">
  <advance width="418"/>
  <anchor x="139" y="694" name="_top"/>
  <outline>
    <contour>
      <point x="163" y="921" type="curve" smooth="yes"/>
      <point x="142" y="820" type="line"/>
      <point x="143" y="784" type="line"/>
      <point x="191" y="784" type="line"/>
      <point x="276" y="834" type="line" smooth="yes"/>
      <point x="324" y="859"/>
      <point x="357" y="886"/>
      <point x="357" y="933" type="curve" smooth="yes"/>
      <point x="357" y="974"/>
      <point x="324" y="1006"/>
      <point x="265" y="1006" type="curve" smooth="yes"/>
      <point x="205" y="1006"/>
      <point x="176" y="969"/>
    </contour>
  </outline>
</glyph>
<glyph name="breve_acute.uc" format="2">
  <advance width="408"/>
  <anchor x="193" y="744" name="_top"/>
  <outline>
    <contour>
      <point x="247" y="1166" type="curve" smooth="yes"/>
      <point x="153" y="1046" type="line"/>
      <point x="143" y="1009" type="line"/>
      <point x="193" y="1009" type="line"/>
      <point x="310" y="1050" type="line" smooth="yes"/>
      <point x="404" y="1071"/>
      <point x="446" y="1094"/>
      <point x="446" y="1150" type="curve" smooth="yes"/>
      <point x="446" y="1191"/>
      <point x="412" y="1223"/>
      <point x="355" y="1223" type="curve" smooth="yes"/>
      <point x="307" y="1223"/>
      <point x="281" y="1201"/>
    </contour>
    <component base="breve.uc"/>
  </outline>
</glyph>
<glyph name="breve_hook" format="2">
  <advance width="414"/>
  <anchor x="195" y="525" name="_top"/>
  <outline>
    <contour>
      <point x="95" y="1000" type="line"/>
      <point x="119" y="1092"/>
      <point x="187" y="1122"/>
      <point x="276" y="1122" type="curve" smooth="yes"/>
      <point x="373" y="1122"/>
      <point x="438" y="1094"/>
      <point x="438" y="1021" type="curve" smooth="yes"/>
      <point x="438" y="933"/>
      <point x="376" y="903"/>
      <point x="282" y="900" type="curve"/>
      <point x="313" y="938" type="line"/>
      <point x="291" y="854" type="line"/>
      <point x="181" y="854" type="line"/>
      <point x="204" y="947" type="line"/>
      <point x="298" y="948"/>
      <point x="307" y="971"/>
      <point x="307" y="1015" type="curve" smooth="yes"/>
      <point x="307" y="1043"/>
      <point x="294" y="1053"/>
      <point x="267" y="1053" type="curve" smooth="yes"/>
      <point x="239" y="1053"/>
      <point x="226" y="1041"/>
      <point x="217" y="1000" type="curve"/>
    </contour>
    <contour>
      <point x="56" y="839" type="curve"/>
      <point x="153" y="839" type="line"/>
      <point x="150" y="779"/>
      <point x="160" y="756"/>
      <point x="224" y="756" type="curve" smooth="yes"/>
      <point x="299" y="756"/>
      <point x="313" y="769"/>
      <point x="327" y="839" type="curve"/>
      <point x="424" y="839" type="line"/>
      <point x="414" y="679"/>
      <point x="335" y="639"/>
      <point x="222" y="639" type="curve" smooth="yes"/>
      <point x="103" y="639"/>
      <point x="48" y="686"/>
      <point x="48" y="772" type="curve"/>
      <point x="48" y="793"/>
      <point x="51" y="814"/>
    </contour>
  </outline>
</glyph>
<glyph name="breve_tilde" format="2">
  <advance width="418"/>
  <anchor x="198" y="524" name="_top"/>
  <outline>
    <contour>
      <point x="329" y="886" type="curve" smooth="yes"/>
      <point x="396" y="886"/>
      <point x="444" y="921"/>
      <point x="478" y="1060" type="curve"/>
      <point x="394" y="1083" type="line"/>
      <point x="376" y="1020"/>
      <point x="364" y="992"/>
      <point x="341" y="992" type="curve" smooth="yes"/>
      <point x="298" y="992"/>
      <point x="297" y="1076"/>
      <point x="205" y="1076" type="curve" smooth="yes"/>
      <point x="134" y="1076"/>
      <point x="96" y="1037"/>
      <point x="55" y="906" type="curve"/>
      <point x="140" y="883" type="line"/>
      <point x="157" y="942"/>
      <point x="166" y="973"/>
      <point x="187" y="973" type="curve"/>
      <point x="226" y="973"/>
      <point x="229" y="886"/>
    </contour>
    <contour>
      <point x="222" y="639" type="curve"/>
      <point x="340" y="639"/>
      <point x="423" y="678"/>
      <point x="425" y="828" type="curve"/>
      <point x="327" y="828" type="line"/>
      <point x="315" y="766"/>
      <point x="300" y="753"/>
      <point x="224" y="753" type="curve" smooth="yes"/>
      <point x="160" y="753"/>
      <point x="149" y="777"/>
      <point x="153" y="828" type="curve"/>
      <point x="56" y="828" type="line"/>
      <point x="51" y="811"/>
      <point x="48" y="792"/>
      <point x="48" y="771" type="curve"/>
      <point x="48" y="685"/>
      <point x="106" y="639"/>
    </contour>
  </outline>
</glyph>
<glyph name="cedilla" format="2">
  <advance width="418"/>
  <anchor x="205" y="34" name="_bottom"/>
  <outline>
    <contour>
      <point x="210" y="-303" type="curve"/>
      <point x="326" y="-303"/>
      <point x="369" y="-256"/>
      <point x="369" y="-176" type="curve" smooth="yes"/>
      <point x="369" y="-113"/>
      <point x="323" y="-74"/>
      <point x="205" y="-73" type="curve"/>
      <point x="201" y="-92" type="line"/>
      <point x="318" y="6" type="line"/>
      <point x="216" y="6" type="line"/>
      <point x="135" y="-135" type="line"/>
      <point x="152" y="-135" type="line" smooth="yes"/>
      <point x="208" y="-135"/>
      <point x="228" y="-152"/>
      <point x="228" y="-184" type="curve" smooth="yes"/>
      <point x="228" y="-216"/>
      <point x="217" y="-239"/>
      <point x="185" y="-239" type="curve" smooth="yes"/>
      <point x="144" y="-239"/>
      <point x="118" y="-206"/>
      <point x="109" y="-189" type="curve"/>
      <point x="59" y="-235" type="line"/>
      <point x="86" y="-275"/>
      <point x="129" y="-303"/>
    </contour>
  </outline>
</glyph>
<glyph name="circumflex" format="2">
  <advance width="418"/>
  <anchor x="208" y="529" name="_top"/>
  <outline>
    <contour>
      <point x="304" y="861" type="line"/>
      <point x="391" y="673" type="line"/>
      <point x="378" y="633" type="line"/>
      <point x="320" y="633" type="line"/>
      <point x="193" y="760" type="line"/>
      <point x="228" y="750" type="line"/>
      <point x="57" y="633" type="line"/>
      <point x="-16" y="633" type="line"/>
      <point x="-4" y="673" type="line"/>
      <point x="167" y="861" type="line"/>
    </contour>
  </outline>
</glyph>
<glyph name="circumflex.uc" format="2">
  <advance width="418"/>
  <anchor x="208" y="694" name="_top"/>
  <outline>
    <contour>
      <point x="302" y="981" type="line"/>
      <point x="395" y="815" type="line"/>
      <point x="383" y="776" type="line"/>
      <point x="318" y="776" type="line"/>
      <point x="187" y="885" type="line"/>
      <point x="214" y="882" type="line"/>
      <point x="60" y="776" type="line"/>
      <point x="-18" y="776" type="line"/>
      <point x="-5" y="815" type="line"/>
      <point x="159" y="981" type="line"/>
    </contour>
  </outline>
</glyph>
<glyph name="circumflex_acute.uc" format="2">
  <advance width="404"/>
  <anchor x="170" y="749" name="_top"/>
  <outline>
    <contour>
      <point x="439" y="1078" type="curve" smooth="yes"/>
      <point x="396" y="958" type="line"/>
      <point x="397" y="921" type="line"/>
      <point x="448" y="921" type="line"/>
      <point x="536" y="975" type="line" smooth="yes"/>
      <point x="612" y="1007"/>
      <point x="644" y="1032"/>
      <point x="644" y="1080" type="curve" smooth="yes"/>
      <point x="644" y="1122"/>
      <point x="607" y="1153"/>
      <point x="552" y="1153" type="curve" smooth="yes"/>
      <point x="491" y="1153"/>
      <point x="462" y="1119"/>
    </contour>
    <component base="circumflex.uc"/>
  </outline>
</glyph>
<glyph name="circumflex_grave" format="2">
  <advance width="394"/>
  <anchor x="173" y="564" name="_top"/>
  <outline>
    <contour>
      <point x="522" y="921" type="curve" smooth="yes"/>
      <point x="544" y="818" type="line"/>
      <point x="534" y="782" type="line"/>
      <point x="481" y="782" type="line"/>
      <point x="401" y="865" type="line" smooth="yes"/>
      <point x="370" y="889"/>
      <point x="339" y="916"/>
      <point x="339" y="951" type="curve" smooth="yes"/>
      <point x="339" y="992"/>
      <point x="373" y="1023"/>
      <point x="419" y="1023" type="curve" smooth="yes"/>
      <point x="483" y="1023"/>
      <point x="502" y="981"/>
    </contour>
    <component base="circumflex"/>
  </outline>
</glyph>
<glyph name="circumflex_hook.uc" format="2">
  <advance width="408"/>
  <anchor x="166" y="694" name="_top"/>
  <outline>
    <contour>
      <point x="331" y="1048" type="line"/>
      <point x="354" y="1142"/>
      <point x="438" y="1172"/>
      <point x="526" y="1172" type="curve" smooth="yes"/>
      <point x="650" y="1172"/>
      <point x="704" y="1137"/>
      <point x="704" y="1063" type="curve" smooth="yes"/>
      <point x="704" y="977"/>
      <point x="635" y="939"/>
      <point x="470" y="939" type="curve"/>
      <point x="554" y="984" type="line"/>
      <point x="532" y="891" type="line"/>
      <point x="418" y="891" type="line"/>
      <point x="442" y="990" type="line"/>
      <point x="538" y="991"/>
      <point x="562" y="1013"/>
      <point x="562" y="1060" type="curve" smooth="yes"/>
      <point x="562" y="1089"/>
      <point x="546" y="1101"/>
      <point x="521" y="1101" type="curve" smooth="yes"/>
      <point x="491" y="1101"/>
      <point x="474" y="1086"/>
      <point x="464" y="1048" type="curve"/>
    </contour>
    <component base="circumflex.uc"/>
  </outline>
</glyph>
<glyph name="dblgrave.uc" format="2">
  <advance width="418"/>
  <anchor x="254" y="734" name="_top"/>
  <outline>
    <contour>
      <point x="390" y="920" type="line" smooth="yes"/>
      <point x="381" y="976"/>
      <point x="355" y="1006"/>
      <point x="293" y="1006" type="curve" smooth="yes"/>
      <point x="240" y="1006"/>
      <point x="203" y="974"/>
      <point x="203" y="933" type="curve" smooth="yes"/>
      <point x="203" y="894"/>
      <point x="227" y="868"/>
      <point x="262" y="842" type="curve" smooth="yes"/>
      <point x="335" y="784" type="line"/>
      <point x="380" y="784" type="line"/>
      <point x="392" y="821" type="line"/>
    </contour>
    <contour>
      <point x="171" y="920" type="line" smooth="yes"/>
      <point x="161" y="976"/>
      <point x="135" y="1006"/>
      <point x="74" y="1006" type="curve" smooth="yes"/>
      <point x="20" y="1006"/>
      <point x="-17" y="974"/>
      <point x="-17" y="933" type="curve" smooth="yes"/>
      <point x="-17" y="894"/>
      <point x="8" y="868"/>
      <point x="42" y="842" type="curve" smooth="yes"/>
      <point x="115" y="784" type="line"/>
      <point x="160" y="784" type="line"/>
      <point x="172" y="821" type="line"/>
    </contour>
  </outline>
</glyph>
<glyph name="dieresis" format="2">
  <advance width="418"/>
  <anchor x="203" y="526" name="_top"/>
  <outline>
    <contour>
      <point x="104" y="636" type="curve" smooth="yes"/>
      <point x="177" y="636"/>
      <point x="219" y="665"/>
      <point x="219" y="727" type="curve" smooth="yes"/>
      <point x="219" y="787"/>
      <point x="177" y="817"/>
      <point x="104" y="817" type="curve" smooth="yes"/>
      <point x="31" y="817"/>
      <point x="-11" y="787"/>
      <point x="-11" y="727" type="curve" smooth="yes"/>
      <point x="-11" y="664"/>
      <point x="31" y="636"/>
    </contour>
    <contour>
      <point x="371" y="636" type="curve" smooth="yes"/>
      <point x="444" y="636"/>
      <point x="486" y="665"/>
      <point x="486" y="727" type="curve" smooth="yes"/>
      <point x="486" y="787"/>
      <point x="444" y="817"/>
      <point x="371" y="817" type="curve" smooth="yes"/>
      <point x="298" y="817"/>
      <point x="256" y="787"/>
      <point x="256" y="727" type="curve" smooth="yes"/>
      <point x="256" y="664"/>
      <point x="298" y="636"/>
    </contour>
  </outline>
</glyph>
<glyph name="eogonek" format="2">
  <advance width="578"/>
  <outline>
    <contour>
      <point x="283" y="-252" type="curve" smooth="yes"/>
      <point x="357" y="-252"/>
      <point x="402" y="-226"/>
      <point x="441" y="-190" type="curve"/>
      <point x="410" y="-142" type="line"/>
      <point x="392" y="-159"/>
      <point x="366" y="-182"/>
      <point x="337" y="-182" type="curve" smooth="yes"/>
      <point x="313" y="-182"/>
      <point x="301" y="-167"/>
      <point x="301" y="-134" type="curve" smooth="yes"/>
      <point x="301" y="-71"/>
      <point x="333" y="-57"/>
      <point x="455" y="52" type="curve" smooth="yes"/>
      <point x="484" y="78"/>
      <point x="505" y="107"/>
      <point x="520" y="131" type="curve"/>
      <point x="454" y="185" type="line"/>
      <point x="423" y="135"/>
      <point x="378" y="83"/>
      <point x="315" y="83" type="curve" smooth="yes"/>
      <point x="264" y="83"/>
      <point x="230" y="115"/>
      <point x="230" y="208" type="curve" smooth="yes"/>
      <point x="230" y="370"/>
      <point x="281" y="492"/>
      <point x="341" y="492" type="curve" smooth="yes"/>
      <point x="368" y="492"/>
      <point x="380" y="472"/>
      <point x="380" y="436" type="curve" smooth="yes"/>
      <point x="380" y="331"/>
      <point x="314" y="296"/>
      <point x="182" y="290" type="curve"/>
      <point x="185" y="219" type="line"/>
      <point x="441" y="226"/>
      <point x="562" y="297"/>
      <point x="562" y="427" type="curve" smooth="yes"/>
      <point x="562" y="513"/>
      <point x="506" y="580"/>
      <point x="370" y="580" type="curve" smooth="yes"/>
      <point x="167" y="580"/>
      <point x="23" y="420"/>
      <point x="23" y="208" type="curve" smooth="yes"/>
      <point x="23" y="69"/>
      <point x="115" y="-14"/>
      <point x="267" y="-14" type="curve" smooth="yes"/>
      <point x="315" y="-14"/>
      <point x="351" y="-6"/>
      <point x="385" y="9" type="curve"/>
      <point x="382" y="28" type="line"/>
      <point x="196" y="-53"/>
      <point x="124" y="-83"/>
      <point x="124" y="-153" type="curve" smooth="yes"/>
      <point x="124" y="-222"/>
      <point x="178" y="-252"/>
    </contour>
  </outline>
</glyph>
<glyph name="f_f_l.alt" format="2">
  <advance width="1064"/>
  <outline>
    <contour>
      <point x="419" y="569" type="line"/>
      <point x="399" y="485" type="line"/>
      <point x="780" y="485" type="line"/>
      <point x="801" y="569" type="line"/>
    </contour>
    <contour>
      <point x="809" y="698" type="curve" smooth="yes"/>
      <point x="867" y="698"/>
      <point x="898" y="685"/>
      <point x="912" y="679" type="curve"/>
      <point x="945" y="730" type="line"/>
      <point x="904" y="752"/>
      <point x="829" y="785"/>
      <point x="754" y="785" type="curve" smooth="yes"/>
      <point x="590" y="785"/>
      <point x="522" y="738"/>
      <point x="500" y="608" type="curve" smooth="yes"/>
      <point x="360" y="-241" type="line"/>
      <point x="526" y="-241" type="line"/>
      <point x="724" y="621" type="line" smooth="yes"/>
      <point x="737" y="676"/>
      <point x="754" y="698"/>
    </contour>
    <contour>
      <point x="986" y="251" type="curve" smooth="yes"/>
      <point x="1118" y="780" type="line"/>
      <point x="767" y="780" type="line"/>
      <point x="884" y="708" type="line"/>
      <point x="769" y="246" type="line" smooth="yes"/>
      <point x="745" y="151"/>
      <point x="738" y="120"/>
      <point x="738" y="93" type="curve" smooth="yes"/>
      <point x="738" y="33"/>
      <point x="780" y="0"/>
      <point x="851" y="0" type="curve" smooth="yes"/>
      <point x="892" y="0"/>
      <point x="935" y="0"/>
      <point x="977" y="0" type="curve"/>
      <point x="999" y="96" type="line"/>
      <point x="994" y="96"/>
      <point x="990" y="96"/>
      <point x="986" y="96" type="curve"/>
      <point x="966" y="96"/>
      <point x="956" y="103"/>
      <point x="956" y="120" type="curve" smooth="yes"/>
      <point x="956" y="134"/>
      <point x="964" y="164"/>
    </contour>
    <contour>
      <point x="71" y="569" type="line"/>
      <point x="51" y="485" type="line"/>
      <point x="450" y="485" type="line"/>
      <point x="470" y="569" type="line"/>
    </contour>
    <contour>
      <point x="441" y="772" type="curve" smooth="yes"/>
      <point x="270" y="772"/>
      <point x="174" y="739"/>
      <point x="149" y="587" type="curve" smooth="yes"/>
      <point x="13" y="-241" type="line"/>
      <point x="179" y="-241" type="line"/>
      <point x="373" y="602" type="line" smooth="yes"/>
      <point x="389" y="673"/>
      <point x="404" y="700"/>
      <point x="466" y="700" type="curve" smooth="yes"/>
      <point x="512" y="700"/>
      <point x="545" y="682"/>
      <point x="574" y="657" type="curve"/>
      <point x="564" y="694"/>
      <point x="562" y="713"/>
      <point x="518" y="713" type="curve"/>
      <point x="500" y="604" type="line"/>
      <point x="636" y="604" type="line"/>
      <point x="677" y="721" type="line"/>
      <point x="637" y="740"/>
      <point x="557" y="772"/>
    </contour>
  </outline>
</glyph>
<glyph name="grave.uc" format="2">
  <advance width="418"/>
  <anchor x="228" y="694" name="_top"/>
  <outline>
    <contour>
      <point x="272" y="784" type="line"/>
      <point x="179" y="823" type="line" smooth="yes"/>
      <point x="105" y="841"/>
      <point x="66" y="870"/>
      <point x="66" y="917" type="curve" smooth="yes"/>
      <point x="66" y="957"/>
      <point x="98" y="998"/>
      <point x="162" y="998" type="curve" smooth="yes"/>
      <point x="225" y="998"/>
      <point x="252" y="970"/>
      <point x="278" y="929" type="curve" smooth="yes"/>
      <point x="326" y="821" type="line"/>
      <point x="322" y="784" type="line"/>
    </contour>
  </outline>
</glyph>
<glyph name="hook.uc" format="2">
  <advance width="418"/>
  <anchor x="177" y="679" name="_top"/>
  <outline>
    <contour>
      <point x="3" y="941" type="line"/>
      <point x="30" y="1044"/>
      <point x="133" y="1079"/>
      <point x="221" y="1079" type="curve" smooth="yes"/>
      <point x="361" y="1079"/>
      <point x="421" y="1038"/>
      <point x="421" y="958" type="curve" smooth="yes"/>
      <point x="421" y="855"/>
      <point x="304" y="826"/>
      <point x="164" y="822" type="curve"/>
      <point x="244" y="874" type="line"/>
      <point x="223" y="777" type="line"/>
      <point x="108" y="777" type="line"/>
      <point x="132" y="882" type="line"/>
      <point x="244" y="885"/>
      <point x="267" y="907"/>
      <point x="267" y="955" type="curve" smooth="yes"/>
      <point x="267" y="985"/>
      <point x="256" y="1000"/>
      <point x="215" y="1000" type="curve" smooth="yes"/>
      <point x="181" y="1000"/>
      <point x="159" y="986"/>
      <point x="148" y="941" type="curve"/>
    </contour>
  </outline>
</glyph>
<glyph name="hungarumlaut" format="2">
  <advance width="418"/>
  <anchor x="217" y="525" name="_top"/>
  <outline>
    <contour>
      <point x="48" y="811" type="curve" smooth="yes"/>
      <point x="0" y="680" type="line"/>
      <point x="-10" y="643" type="line"/>
      <point x="39" y="643" type="line"/>
      <point x="122" y="711" type="line" smooth="yes"/>
      <point x="186" y="748"/>
      <point x="223" y="771"/>
      <point x="223" y="817" type="curve" smooth="yes"/>
      <point x="223" y="852"/>
      <point x="194" y="883"/>
      <point x="143" y="883" type="curve" smooth="yes"/>
      <point x="92" y="883"/>
      <point x="66" y="855"/>
    </contour>
    <contour>
      <point x="258" y="811" type="curve" smooth="yes"/>
      <point x="211" y="680" type="line"/>
      <point x="200" y="643" type="line"/>
      <point x="250" y="643" type="line"/>
      <point x="333" y="711" type="line" smooth="yes"/>
      <point x="398" y="748"/>
      <point x="434" y="771"/>
      <point x="434" y="817" type="curve" smooth="yes"/>
      <point x="434" y="852"/>
      <point x="405" y="883"/>
      <point x="354" y="883" type="curve" smooth="yes"/>
      <point x="304" y="883"/>
      <point x="277" y="855"/>
    </contour>
  </outline>
</glyph>
<glyph name="notequal" format="2">
  <advance width="560"/>
  <guideline x="60" y="161" angle="90.0" identifier="kwrxmEme7g"/>
  <guideline x="450" y="144" angle="90.0" identifier="2P34MkiRUL"/>
  <outline>
    <contour>
      <point x="462" y="638.0" type="line"/>
      <point x="-6" y="4.0" type="line"/>
      <point x="98" y="4.0" type="line"/>
      <point x="566" y="638.0" type="line"/>
    </contour>
    <component base="equal"/>
  </outline>
</glyph>
<glyph name="ringhalfright" format="2">
  <advance width="418"/>
  <anchor x="191" y="566" name="_top"/>
  <outline>
    <contour>
      <point x="216" y="618" type="line"/>
      <point x="315" y="618"/>
      <point x="378" y="682"/>
      <point x="378" y="764" type="curve" smooth="yes"/>
      <point x="378" y="840"/>
      <point x="320" y="893"/>
      <point x="226" y="893" type="curve"/>
      <point x="222" y="823" type="line"/>
      <point x="263" y="823"/>
      <point x="281" y="802"/>
      <point x="281" y="767" type="curve" smooth="yes"/>
      <point x="281" y="728"/>
      <point x="266" y="688"/>
      <point x="220" y="688" type="curve"/>
    </contour>
  </outline>
</glyph>
<glyph name="tilde" format="2">
  <advance width="418"/>
  <anchor x="209" y="516" name="_top"/>
  <outline>
    <contour>
      <point x="269" y="632" type="curve" smooth="yes"/>
      <point x="335" y="632"/>
      <point x="385" y="681"/>
      <point x="425" y="843" type="curve"/>
      <point x="346" y="864" type="line"/>
      <point x="324" y="786"/>
      <point x="311" y="750"/>
      <point x="291" y="750" type="curve" smooth="yes"/>
      <point x="247" y="750"/>
      <point x="254" y="858"/>
      <point x="151" y="858" type="curve" smooth="yes"/>
      <point x="75" y="858"/>
      <point x="39" y="805"/>
      <point x="-5" y="650" type="curve"/>
      <point x="75" y="629" type="line"/>
      <point x="97" y="709"/>
      <point x="103" y="743"/>
      <point x="126" y="743" type="curve" smooth="yes"/>
      <point x="172" y="743"/>
      <point x="157" y="632"/>
    </contour>
  </outline>
</glyph>
<glyph name="tilde.uc" format="2">
  <advance width="418"/>
  <anchor x="209" y="694" name="_top"/>
  <outline>
    <contour>
      <point x="269" y="776" type="curve"/>
      <point x="340" y="776"/>
      <point x="386" y="820"/>
      <point x="428" y="975" type="curve"/>
      <point x="346" y="999" type="line"/>
      <point x="324" y="928"/>
      <point x="313" y="895"/>
      <point x="292" y="895" type="curve" smooth="yes"/>
      <point x="237" y="895"/>
      <point x="247" y="993"/>
      <point x="149" y="993" type="curve" smooth="yes"/>
      <point x="69" y="993"/>
      <point x="30" y="944"/>
      <point x="-10" y="798" type="curve"/>
      <point x="72" y="775" type="line"/>
      <point x="91" y="845"/>
      <point x="100" y="877"/>
      <point x="125" y="877" type="curve" smooth="yes"/>
      <point x="175" y="877"/>
      <point x="161" y="776"/>
    </contour>
  </outline>
</glyph>
